name C:\Users\u0101727\Documents\MyRepositories\upper-imu-dc\Results\main_tracking\Case_10\FLX01_linearAccelerations_bodyFrame.mot
datacolumns 4
datarows 82
range 3.51000000 4.32000000
endheader 
time	radius_imu_x	radius_imu_y	radius_imu_z	
          3.51000000	         -0.66754093	         -9.68045770	          1.48699566	
          3.52000000	         -0.75169062	         -9.66804680	          1.51146719	
          3.53000000	         -0.81497123	         -9.65307768	          1.55504990	
          3.54000000	         -0.85278551	         -9.63422764	          1.61610081	
          3.55000000	         -0.86560255	         -9.61046419	          1.69178735	
          3.56000000	         -0.86016344	         -9.58259069	          1.77800285	
          3.57000000	         -0.84670585	         -9.55368627	          1.86990088	
          3.58000000	         -0.83475482	         -9.52814960	          1.96268222	
          3.59000000	         -0.83018967	         -9.51012230	          2.05193615	
          3.60000000	         -0.83447824	         -9.50222963	          2.13358949	
          3.61000000	         -0.84465283	         -9.50501185	          2.20392477	
          3.62000000	         -0.85281076	         -9.51698634	          2.26005186	
          3.63000000	         -0.84672419	         -9.53512912	          2.30061518	
          3.64000000	         -0.81293841	         -9.55565138	          2.32581624	
          3.65000000	         -0.74099466	         -9.57468928	          2.33683453	
          3.66000000	         -0.62632997	         -9.58867953	          2.33515925	
          3.67000000	         -0.47156916	         -9.59462458	          2.32198456	
          3.68000000	         -0.28726911	         -9.59052807	          2.29752909	
          3.69000000	         -0.09239289	         -9.57610198	          2.26046087	
          3.70000000	          0.08729832	         -9.55420437	          2.20812570	
          3.71000000	          0.23031099	         -9.53264839	          2.13714702	
          3.72000000	          0.32442137	         -9.51213236	          2.04972076	
          3.73000000	          0.37343849	         -9.49237823	          1.95271667	
          3.74000000	          0.39815518	         -9.48179093	          1.85333072	
          3.75000000	          0.42196328	         -9.48414471	          1.76119121	
          3.76000000	          0.46626798	         -9.49976326	          1.68473204	
          3.77000000	          0.54382765	         -9.52592575	          1.62970946	
          3.78000000	          0.65551285	         -9.55716661	          1.59863688	
          3.79000000	          0.78994376	         -9.58659691	          1.59083420	
          3.80000000	          0.92624298	         -9.60781907	          1.60301478	
          3.81000000	          1.03968701	         -9.61640110	          1.63035647	
          3.82000000	          1.10860432	         -9.61028771	          1.66793397	
          3.83000000	          1.12008811	         -9.58929408	          1.71214446	
          3.84000000	          1.07262288	         -9.55432325	          1.76154898	
          3.85000000	          0.97558731	         -9.50683942	          1.81685783	
          3.86000000	          0.84631432	         -9.44880345	          1.88004024	
          3.87000000	          0.70552039	         -9.38289385	          1.95297988	
          3.88000000	          0.57270905	         -9.31278503	          2.03626697	
          3.89000000	          0.46263766	         -9.24329286	          2.12843882	
          3.90000000	          0.38355595	         -9.18017515	          2.22577704	
          3.91000000	          0.33701386	         -9.12936534	          2.32266203	
          3.92000000	          0.31872192	         -9.09557283	          2.41241658	
          3.93000000	          0.32009004	         -9.08058244	          2.48838613	
          3.94000000	          0.33034165	         -9.08200540	          2.54487347	
          3.95000000	          0.33918296	         -9.09326146	          2.57771143	
          3.96000000	          0.33962315	         -9.10507785	          2.58450983	
          3.97000000	          0.32986540	         -9.10800643	          2.56469661	
          3.98000000	          0.31331937	         -9.09489231	          2.51941702	
          3.99000000	          0.29674452	         -9.06229793	          2.45136676	
          4.00000000	          0.28738096	         -9.01055671	          2.36466316	
          4.01000000	          0.29014858	         -8.94287274	          2.26478487	
          4.02000000	          0.30578399	         -8.86415726	          2.15848589	
          4.03000000	          0.33037035	         -8.78005288	          2.05350260	
          4.04000000	          0.35597722	         -8.69622443	          1.95790937	
          4.05000000	          0.37142547	         -8.61778857	          1.87922111	
          4.06000000	          0.36255484	         -8.54876097	          1.82357003	
          4.07000000	          0.31256705	         -8.49159338	          1.79519302	
          4.08000000	          0.20349824	         -8.44703940	          1.79618577	
          4.09000000	          0.01924633	         -8.41440221	          1.82641755	
          4.10000000	         -0.25056241	         -8.39181689	          1.88357729	
          4.11000000	         -0.60732172	         -8.37623128	          1.96338890	
          4.12000000	         -1.04201014	         -8.36326240	          2.06006789	
          4.13000000	         -1.53547689	         -8.34745534	          2.16709129	
          4.14000000	         -2.05976935	         -8.32321395	          2.27818997	
          4.15000000	         -2.58022760	         -8.28609953	          2.38828152	
          4.16000000	         -3.05862327	         -8.23389078	          2.49409924	
          4.17000000	         -3.45759914	         -8.16689150	          2.59443715	
          4.18000000	         -3.74610958	         -8.08736371	          2.68999324	
          4.19000000	         -3.90485312	         -7.99857146	          2.78276770	
          4.20000000	         -3.93043569	         -7.90417888	          2.87503216	
          4.21000000	         -3.83779700	         -7.80811654	          2.96790300	
          4.22000000	         -3.66131856	         -7.71424261	          3.05957053	
          4.23000000	         -3.45389594	         -7.62524695	          3.14378080	
          4.24000000	         -3.27990736	         -7.54107434	          3.21031158	
          4.25000000	         -3.19817768	         -7.45795058	          3.24912130	
          4.26000000	         -3.24171684	         -7.36937452	          3.25656161	
          4.27000000	         -3.40950362	         -7.26931156	          3.23897436	
          4.28000000	         -3.67483571	         -7.15562978	          3.21112985	
          4.29000000	         -3.99970888	         -7.03117733	          3.19131391	
          4.30000000	         -4.34473916	         -6.90208149	          3.19617215	
          4.31000000	         -4.67212398	         -6.77515212	          3.23720528	
          4.32000000	         -4.94420954	         -6.65619434	          3.31951719	
